<?xml version="1.0" standalone="no"?>
<!DOCTYPE svg PUBLIC "-//W3C//DTD SVG 1.1//EN" "http://www.w3.org/Graphics/SVG/1.1/DTD/svg11.dtd" >
<svg xmlns="http://www.w3.org/2000/svg">
<metadata>
This is a custom SVG webfont generated by Font Squirrel.
Copyright   : 2005 Xavier Dupre published by FontShop International for the FontFont library
</metadata>
<defs>
<font id="webfontJukSfWWP" horiz-adv-x="1024" >
<font-face units-per-em="2048" ascent="1638" descent="-410" />
<missing-glyph horiz-adv-x="491" />
<glyph unicode=" "  horiz-adv-x="491" />
<glyph unicode="&#x09;" horiz-adv-x="491" />
<glyph unicode="&#xa0;" horiz-adv-x="491" />
<glyph unicode="!" horiz-adv-x="512" d="M360 1397l-41 -1024h-122l-39 1024h202zM375 94q0 -47 -35 -80.5t-82 -33.5t-81 33.5t-34 80.5t34 81t81 34t82 -34t35 -81z" />
<glyph unicode="&#x22;" horiz-adv-x="673" d="M289 1475l-23 -457h-135l-22 457h180zM565 1475l-22 -457h-135l-23 457h180z" />
<glyph unicode="#" horiz-adv-x="1042" d="M985 668h-188l-76 -283h192v-119h-223l-65 -266h-136l68 266h-201l-67 -266h-135l67 266h-162v119h193l74 283h-197v120h227l64 244h133l-64 -244h203l64 244h131l-62 -244h160v-120zM662 668h-201l-76 -283h203z" />
<glyph unicode="$" horiz-adv-x="1042" d="M918 289q0 -98 -60.5 -172t-179.5 -99v-145h-117v129q-18 -2 -47 -2q-23 0 -49 2v-129h-117v139q-111 16 -192 56l45 155q106 -78 307 -78q227 0 227 138q0 53 -58.5 91t-142 66.5t-167.5 61.5t-142.5 96.5t-58.5 151.5q0 86 56.5 152.5t162.5 96.5v144h117v-125 q23 2 51 2q23 0 45 -2v125h117v-129q76 -6 149 -25l-35 -158q-106 43 -260 43q-119 0 -170 -28.5t-51 -87.5q0 -47 58.5 -84t142.5 -66.5t168 -66.5t142.5 -101.5t58.5 -150.5z" />
<glyph unicode="%" horiz-adv-x="1490" d="M1184 1020l-758 -1020h-121l762 1020h117zM659 747.5q0 -135.5 -75.5 -216t-204.5 -80.5t-202 79.5t-73 217.5q0 133 77 212.5t206 79.5q127 0 199.5 -78.5t72.5 -214zM516 750q0 178 -135 178q-133 0 -133 -178q0 -184 133 -185q135 1 135 185zM1386 276.5 q0 -135.5 -75.5 -216t-204.5 -80.5t-202 79.5t-73 216.5q0 133 77 213t206 80q127 0 199.5 -78.5t72.5 -214zM1243 279q0 178 -135 178q-133 0 -133 -178q0 -184 133 -185q135 1 135 185z" />
<glyph unicode="&#x26;" horiz-adv-x="1417" d="M1350 23l-195 -48l-160 131q-170 -127 -405 -126q-231 0 -355 93t-124 257q0 121 79.5 222t223.5 140q-4 16 -4 51q0 129 95 213t234 84q158 0 248 -41l-43 -155q-86 45 -196 45q-76 0 -123 -41t-47 -107q0 -49 33.5 -92t144.5 -133l233 -194q100 137 101 340l167 -13 q-4 -250 -145 -430zM870 209l-245 205q-100 82 -150 143q-84 -18 -134 -78.5t-50 -142.5q0 -100 79 -152.5t222 -52.5q157 0 278 78z" />
<glyph unicode="'" horiz-adv-x="397" d="M289 1475l-23 -457h-135l-22 457h180z" />
<glyph unicode="(" horiz-adv-x="628" d="M719 -438l-66 -137q-268 72 -403 346t-135 680q0 418 146.5 681t391.5 345l64 -134q-418 -160 -418 -892q0 -713 420 -889z" />
<glyph unicode=")" horiz-adv-x="628" d="M-123 1339l66 138q268 -72 403 -346.5t135 -679.5q0 -418 -146.5 -681.5t-391.5 -344.5l-64 133q418 160 418 893q0 712 -420 888z" />
<glyph unicode="*" horiz-adv-x="753" d="M709 1182l-189 -47l-18 -52l125 -145l-123 -92l-96 168h-56l-100 -168l-125 92l133 145l-22 52l-191 47l49 145l180 -82l43 35l-18 195h154l-17 -193l43 -37l181 82z" />
<glyph unicode="+" d="M944 420h-352v-397h-158v397h-352v149h352v385h158v-385h352v-149z" />
<glyph unicode="," horiz-adv-x="434" d="M418 162q-39 -276 -268 -563l-144 45q82 129 129 237.5t59.5 166.5t18.5 126z" />
<glyph unicode="-" horiz-adv-x="653" d="M580 446h-504v144h504v-144z" />
<glyph unicode="." horiz-adv-x="411" d="M338 94q0 -47 -35 -80.5t-82 -33.5t-81 33.5t-34 80.5t34 81t81 34t82 -34t35 -81z" />
<glyph unicode="/" horiz-adv-x="751" d="M799 1448l-639 -1448h-197l641 1448h195z" />
<glyph unicode="0" horiz-adv-x="1042" d="M969 514q0 -250 -122 -392t-333 -142t-324.5 140t-113.5 394q0 248 121.5 387t332.5 139q209 0 324 -138t115 -388zM782 516q0 367 -262 367q-133 0 -195.5 -100.5t-62.5 -266.5q0 -379 258 -379q141 0 201.5 107.5t60.5 271.5z" />
<glyph unicode="1" horiz-adv-x="1042" d="M954 164l-16 -164h-750v164h320v696l-270 -53l-21 149l301 84h174v-876h262z" />
<glyph unicode="2" horiz-adv-x="1042" d="M928 164l-17 -164h-829v133q317 176 444 293t127 244q0 104 -66.5 153t-176.5 49q-150 0 -250 -59l-35 166q117 61 319 61q178 0 292 -94t114 -256q0 -145 -98.5 -262t-345.5 -264h522z" />
<glyph unicode="3" horiz-adv-x="1042" d="M885 266q0 -168 -200 -283.5t-558 -115.5l-27 164q272 0 427 60.5t155 172.5q0 88 -65.5 120t-217.5 32h-147v164h129q139 0 206.5 36.5t67.5 120.5q0 139 -213 140q-143 0 -260 -52l-30 162q133 53 307 53q197 0 294 -77.5t97 -208.5q0 -78 -52.5 -139.5t-140.5 -90.5 v-6q228 -43 228 -252z" />
<glyph unicode="4" horiz-adv-x="1042" d="M975 162h-158v-281h-178v281h-545l-16 145l491 733l176 -16l-466 -702h360v350h178v-350h158v-160z" />
<glyph unicode="5" horiz-adv-x="1042" d="M901 246q0 -174 -165 -276.5t-460 -102.5q-61 0 -94 2l-28 164q35 -2 98 -2q451 0 450 209q0 98 -75.5 134t-243.5 36q-104 0 -199 -15l78 625h617l-21 -164h-448l-37 -291q41 4 73 4q209 0 332 -81.5t123 -241.5z" />
<glyph unicode="6" horiz-adv-x="1042" d="M922 371q0 -178 -112 -284.5t-292 -106.5q-195 0 -296 123.5t-101 355.5q0 330 202.5 512t524.5 182l37 -158q-246 0 -395.5 -93t-192.5 -314h12q86 135 262 135q152 0 251.5 -86t99.5 -266zM741 365q0 104 -57 160.5t-162 56.5q-96 0 -153.5 -64.5t-57.5 -163t51.5 -162 t155.5 -63.5q109 0 166 61.5t57 174.5z" />
<glyph unicode="7" horiz-adv-x="1042" d="M952 870l-612 -997l-186 25l594 958h-609l-26 164h839v-150z" />
<glyph unicode="8" horiz-adv-x="1042" d="M924 283q0 -135 -105.5 -219t-310.5 -84q-195 0 -292 76.5t-97 199.5q0 195 213 274q-94 37 -135 94.5t-41 143.5q0 119 95 195.5t277.5 76.5t271.5 -67.5t89 -175.5q0 -176 -209 -244q244 -86 244 -270zM719 760q0 68 -41 103.5t-150 35.5q-195 0 -194 -137 q0 -121 215 -154q170 25 170 152zM739 289q0 143 -262 182q-92 -12 -135 -61.5t-43 -120.5q0 -80 48 -122t165 -42q227 0 227 164z" />
<glyph unicode="9" horiz-adv-x="1042" d="M121 649q0 178 111.5 284.5t291.5 106.5q195 0 296.5 -123.5t101.5 -355.5q0 -330 -203 -512t-524 -182l-37 158q246 0 395 93t192 314h-12q-86 -135 -262 -135q-152 0 -251 86t-99 266zM301 655q0 -104 57.5 -160.5t161.5 -56.5q96 0 153.5 64.5t57.5 163t-51 162 t-156 63.5q-109 0 -166 -61.5t-57 -174.5z" />
<glyph unicode=":" horiz-adv-x="380" d="M307 94q0 -47 -34.5 -80.5t-82 -33.5t-81 33.5t-33.5 80.5t33.5 81t81 34t82 -34t34.5 -81zM305 768q0 -47 -34.5 -81t-82 -34t-81 34t-33.5 81t33.5 81t81 34t82 -34t34.5 -81z" />
<glyph unicode=";" horiz-adv-x="380" d="M371 162q-39 -276 -269 -563l-143 45q82 129 129 237.5t59.5 166.5t18.5 126zM305 768q0 -47 -34.5 -81t-82 -34t-81 34t-33.5 81t33.5 81t81 34t82 -34t34.5 -81z" />
<glyph unicode="&#x3c;" d="M905 66h-243l-584 434l586 426h237l-588 -420z" />
<glyph unicode="=" d="M918 627h-805v143h805v-143zM918 229h-805v146h805v-146z" />
<glyph unicode="&#x3e;" d="M117 926h243l584 -434l-586 -426h-237l588 419z" />
<glyph unicode="?" horiz-adv-x="788" d="M748 1065q0 -152 -114 -264.5t-306 -157.5l10 -270h-129l-84 379q209 31 322.5 100.5t113.5 202.5q0 102 -61.5 153.5t-159.5 51.5q-150 0 -246 -78l-24 174q113 66 284 65q170 0 282 -90t112 -266zM391 94q0 -47 -34.5 -80.5t-82 -33.5t-81 33.5t-33.5 80.5t33.5 81 t81 34t82 -34t34.5 -81z" />
<glyph unicode="@" horiz-adv-x="1746" d="M1645 518q0 -215 -110 -350t-265 -135q-172 0 -232 100q-152 -94 -266 -94q-102 0 -162.5 60.5t-60.5 146.5q0 145 131 225l342 27v104q0 72 -33 102.5t-100 30.5q-111 0 -232 -78l-47 117q139 104 318 105q256 0 256 -258q0 -10 -1 -172t-1 -189q0 -111 106 -110 q100 0 164 107.5t64 260.5q0 295 -164 448.5t-455 153.5q-303 0 -483.5 -189.5t-180.5 -494.5q0 -299 164 -462.5t412 -163.5q162 0 278 40l13 -116q-111 -37 -299 -37q-299 0 -499 200.5t-200 532.5q0 348 227.5 574.5t569.5 226.5t544 -186.5t202 -526.5zM1020 383 l-283 -23q-20 -27 -20 -71q0 -55 33.5 -85t93.5 -30q78 0 176 66v143z" />
<glyph unicode="A" horiz-adv-x="1345" d="M1298 8l-198 -16l-168 444h-533l-163 -436h-191l543 1397h168zM870 604l-178 473q-16 41 -20 86h-10q-8 -51 -21 -86l-178 -473h407z" />
<glyph unicode="B" horiz-adv-x="1196" d="M1104 381q0 -176 -123 -283.5t-340 -107.5l-330 10h-112v1397h98q190 10 289 10q197 0 313.5 -93t116.5 -257q0 -113 -62.5 -205t-171.5 -119v-8q150 -23 236 -118t86 -226zM825 1024q0 109 -71.5 171t-198.5 62q-102 0 -172 -4v-471h147q295 0 295 242zM903 377 q0 113 -87 180.5t-275 67.5h-158v-471q90 -8 233 -9q133 0 210 61.5t77 170.5z" />
<glyph unicode="C" horiz-adv-x="1366" d="M1272 92q-197 -113 -477 -112q-186 0 -344 79.5t-258.5 240.5t-100.5 374q0 186 63.5 333.5t168 235.5t227.5 133t254 45q262 0 446 -94l-55 -182q-168 100 -389 100q-217 0 -363.5 -140t-146.5 -431q0 -252 156.5 -385t371.5 -133q102 0 212 35.5t186 84.5z" />
<glyph unicode="D" horiz-adv-x="1495" d="M1405 725q0 -356 -194.5 -547.5t-512.5 -191.5l-391 14h-108v1397h100q256 14 371 14q332 0 533.5 -183.5t201.5 -502.5zM1202 702q0 266 -153.5 405.5t-389.5 139.5q-131 0 -270 -10v-1073q166 -12 293 -12q233 0 376.5 150t143.5 400z" />
<glyph unicode="E" horiz-adv-x="1163" d="M1047 170l-11 -170h-837v1397h802l-10 -172h-600v-420h545v-172h-545v-463h656z" />
<glyph unicode="F" horiz-adv-x="1093" d="M999 1397l-20 -170h-588v-502h551v-174h-551v-551h-192v1397h800z" />
<glyph unicode="G" horiz-adv-x="1478" d="M1321 72q-231 -92 -510 -92q-303 0 -511 190t-208 512q0 180 62.5 325.5t165 233.5t226.5 134t255 46q260 0 487 -98l-59 -186q-78 45 -192.5 76.5t-219.5 31.5q-98 0 -185 -28.5t-165 -90t-124 -175t-46 -265.5q0 -252 158.5 -392t400.5 -140q143 0 270 45v403h195v-530 z" />
<glyph unicode="H" horiz-adv-x="1523" d="M391 0h-192v1397h192v-582h742v582h192v-1397h-192v641h-742v-641z" />
<glyph unicode="I" horiz-adv-x="589" d="M391 0h-192v1397h192v-1397z" />
<glyph unicode="J" horiz-adv-x="612" d="M414 80q0 -410 -432 -488l-48 177q139 31 213 107.5t74 215.5v1305h193v-1317z" />
<glyph unicode="K" horiz-adv-x="1366" d="M1083 1413l232 -24l-635 -596l663 -791l-225 -22l-571 686l-156 -140v-526h-192v1397h192v-641z" />
<glyph unicode="L" horiz-adv-x="1075" d="M1028 172l-12 -172h-817v1397h192v-1225h637z" />
<glyph unicode="M" horiz-adv-x="1853" d="M1708 6l-188 -12l-60 991q-2 20 -2 90h-10q-12 -68 -27 -102l-440 -973h-160l-385 971q-20 47 -26 104h-11q0 -68 -2 -92l-78 -983h-174l109 1397h197l430 -1061q20 -51 22 -98h15q8 47 28 98l477 1061h193z" />
<glyph unicode="N" horiz-adv-x="1603" d="M1405 2l-162 -22l-809 1077q-37 47 -51 92h-10q4 -53 4 -88v-1061h-178v1397h211l761 -1010q31 -43 52 -94h8q-4 70 -4 96v1008h178v-1395z" />
<glyph unicode="O" horiz-adv-x="1613" d="M1524 725q0 -231 -105.5 -404.5t-272.5 -257t-366 -83.5q-276 0 -482 189t-206 501q0 348 213 549.5t522 201.5q285 0 491 -191.5t206 -504.5zM1319 705q0 260 -145.5 402t-356.5 142q-217 0 -368.5 -147.5t-151.5 -403.5q0 -258 141.5 -402t362.5 -144 q225 0 371.5 156.5t146.5 396.5z" />
<glyph unicode="P" horiz-adv-x="1155" d="M1067 997q0 -150 -76 -256t-185.5 -151t-234.5 -45q-59 0 -96 4l-22 174q43 -6 92 -6q137 0 233 65.5t96 204.5q0 125 -76.5 190.5t-222.5 65.5q-37 0 -104.5 -3t-81.5 -3v-1237h-190v1397h106q201 12 297 12q223 0 344 -108.5t121 -303.5z" />
<glyph unicode="Q" horiz-adv-x="1613" d="M1563 -281l-172 -94l-592 359h-21q-276 0 -482 187t-206 499q0 346 215 548.5t522 202.5q285 0 490 -192.5t205 -503.5q0 -268 -131 -445.5t-351 -250.5v-6zM1317 705q0 262 -144.5 402t-355.5 140q-219 0 -370.5 -147.5t-151.5 -401.5q0 -256 142.5 -401t361.5 -145 q225 0 371.5 156.5t146.5 396.5z" />
<glyph unicode="R" horiz-adv-x="1228" d="M1249 16l-209 -39l-462 607h-191v-584h-188v1397h104q250 12 313 12q201 0 318 -103.5t117 -283.5q0 -147 -79 -245.5t-204 -137.5v-8zM854 1008q0 117 -76 177t-211 60q-39 0 -180 -6v-494h178q139 0 214 71t75 192z" />
<glyph unicode="S" horiz-adv-x="1083" d="M977 373q0 -178 -127 -285.5t-334 -107.5q-115 0 -232.5 29.5t-183.5 72.5l62 180q66 -49 170 -79.5t194 -30.5q106 0 178 53t72 145q0 82 -66.5 149.5t-160.5 117.5l-190 106q-95 55 -161.5 137t-66.5 187q0 174 130 274t323 100q176 0 340 -45l-35 -184 q-135 59 -299 59q-262 0 -262 -174q0 -74 66.5 -136t161.5 -112.5t191.5 -107.5t163 -146t66.5 -202z" />
<glyph unicode="T" horiz-adv-x="1181" d="M1153 1397l-8 -172h-457v-1225h-194v1225h-457l-8 172h1124z" />
<glyph unicode="U" horiz-adv-x="1472" d="M1292 469q0 -211 -154.5 -350t-398.5 -139q-262 0 -410.5 122.5t-148.5 366.5v928h193v-903q0 -152 93 -243t273 -91q174 0 265.5 95t91.5 241v901h196v-928z" />
<glyph unicode="V" horiz-adv-x="1320" d="M1266 1397l-498 -1397h-209l-504 1391l199 18l391 -1098q14 -45 19 -78h12q4 41 18 78l375 1086h197z" />
<glyph unicode="W" horiz-adv-x="2125" d="M2062 1397l-413 -1397h-199l-346 1077q-18 70 -21 88h-10q-2 -31 -22 -90l-379 -1075h-197l-409 1391l196 16l303 -1055q12 -43 17 -84h12q4 31 20 82l369 1047h201l340 -1045q14 -45 20 -84h10q4 39 17 84l299 1045h192z" />
<glyph unicode="X" horiz-adv-x="1400" d="M1348 16l-213 -28l-426 608l-433 -596h-221l533 721l-488 651l205 41l410 -565l383 549h221l-490 -664z" />
<glyph unicode="Y" horiz-adv-x="1241" d="M1202 1397l-465 -877v-520h-192v520l-504 869l211 16l356 -635q18 -35 25 -70h16q8 41 25 72l325 625h203z" />
<glyph unicode="Z" horiz-adv-x="1374" d="M1241 0h-1128l-17 154l881 1071h-799l-8 172h1034l29 -142l-891 -1083h887z" />
<glyph unicode="[" horiz-adv-x="649" d="M641 -526h-426v1964h426v-158h-238v-1649h238v-157z" />
<glyph unicode="\" horiz-adv-x="751" d="M797 0h-193l-641 1448h197z" />
<glyph unicode="]" horiz-adv-x="649" d="M434 -526h-426v157h238v1649h-238v158h426v-1964z" />
<glyph unicode="^" d="M854 555l-123 -12l-237 477l-236 -477l-119 12l291 610h127z" />
<glyph unicode="_" d="M1024 -211h-1024v141h1024v-141z" />
<glyph unicode="`" d="M614 1104h-125l-231 317h205z" />
<glyph unicode="a" horiz-adv-x="1089" d="M1053 6l-187 -12l-118 297h-416l-113 -291h-182l412 1020h194zM692 434l-129 328q-12 29 -16 76h-15q-2 -43 -16 -76l-129 -328h305z" />
<glyph unicode="b" horiz-adv-x="1067" d="M956 276q0 -125 -94 -204.5t-268 -79.5q-49 0 -149.5 4t-139.5 4h-106v1020h94q43 0 128 4t120 4q166 0 258 -69.5t92 -188.5q0 -152 -143 -233v-9q208 -55 208 -252zM707 741q0 70 -51.5 110t-143.5 40q-31 0 -133 -4v-303h129q199 -1 199 157zM768 283q0 170 -262 170 h-127v-318q117 -6 180 -6q98 0 153.5 40t55.5 114z" />
<glyph unicode="c" horiz-adv-x="1185" d="M1044 47q-160 -68 -382 -67q-242 0 -406 138t-164 369q0 262 166 407.5t401 145.5q223 0 388 -65l-39 -172q-158 76 -332 76t-279.5 -93.5t-105.5 -291.5q0 -172 111.5 -261.5t283.5 -89.5q166 0 318 76z" />
<glyph unicode="d" horiz-adv-x="1269" d="M1176 528q0 -258 -159 -398t-411 -140q-53 0 -157.5 5t-147.5 5h-102v1020h96q53 0 157.5 4t147.5 4q260 0 418 -132t158 -368zM981 514q0 178 -111.5 268t-287.5 90q-70 0 -199 -6v-712q135 -8 215 -9q174 0 278.5 99.5t104.5 269.5z" />
<glyph unicode="e" horiz-adv-x="1040" d="M920 164l-7 -164h-714v1020h694l-10 -164h-498v-260h459v-158h-459v-274h535z" />
<glyph unicode="f" horiz-adv-x="993" d="M899 1020l-12 -164h-500v-301h459v-160h-459v-395h-188v1020h700z" />
<glyph unicode="g" horiz-adv-x="1247" d="M891 455h188v-410q-199 -68 -391 -68q-270 0 -433 138.5t-163 380.5q0 260 169 402t411 142q231 0 393 -65l-41 -172q-162 76 -344 76q-170 0 -279.5 -95.5t-109.5 -294.5q0 -172 112.5 -259t303.5 -87q88 0 184 29v283z" />
<glyph unicode="h" horiz-adv-x="1318" d="M387 0h-188v1020h188v-414h545v414h188v-1020h-188v449h-545v-449z" />
<glyph unicode="i" horiz-adv-x="585" d="M387 0h-188v1020h188v-1020z" />
<glyph unicode="j" horiz-adv-x="624" d="M426 25q0 -147 -99.5 -236.5t-269.5 -89.5l-24 168q104 0 150 44t46 144v965h197v-995z" />
<glyph unicode="k" horiz-adv-x="1181" d="M383 0h-184v1020h184v-457l528 469l205 -39l-483 -418l487 -559l-213 -26l-409 467l-115 -99v-358z" />
<glyph unicode="l" horiz-adv-x="950" d="M889 166l-8 -166h-682v1020h188v-854h502z" />
<glyph unicode="m" horiz-adv-x="1581" d="M1425 4l-178 -8l-47 653q-2 20 -2 90h-12q-12 -68 -27 -102l-295 -637h-147l-301 635q-20 47 -27 104h-12q0 -68 -2 -92l-53 -647h-166l88 1020h180l342 -733q16 -41 25 -99h16q6 55 27 99l331 733h174z" />
<glyph unicode="n" horiz-adv-x="1343" d="M1145 2l-154 -22l-567 737q-33 43 -49 92h-13q4 -53 5 -88v-721h-168v1020h202l521 -678q33 -43 47 -94h12q-4 57 -4 96v676h168v-1018z" />
<glyph unicode="o" horiz-adv-x="1292" d="M1200 528q0 -256 -168 -402t-403 -146q-215 0 -376 141t-161 368q0 252 167 401.5t405 149.5q219 0 377.5 -142.5t158.5 -369.5zM1001 516q0 174 -102 271.5t-246 97.5q-147 0 -254.5 -99.5t-107.5 -277.5q0 -170 100.5 -271.5t247.5 -101.5q156 0 259 106.5t103 274.5z " />
<glyph unicode="p" horiz-adv-x="1028" d="M936 727q0 -170 -117 -258t-291 -88q-12 0 -69 4l-21 143q41 -6 84 -6q96 0 161 47t65 146q0 170 -220 170q-80 0 -145 -4v-881h-184v1020h104q45 0 131 4t119 4q172 0 277.5 -78t105.5 -223z" />
<glyph unicode="q" horiz-adv-x="1292" d="M1292 -211l-143 -96l-535 299h-16q-199 0 -352.5 139t-153.5 356q0 254 167 403.5t405 149.5q217 0 376.5 -141t159.5 -371q0 -172 -91 -301t-239 -190v-12zM1001 516q0 174 -102 271.5t-246 97.5q-147 0 -254.5 -99.5t-107.5 -277.5q0 -170 100.5 -271.5t247.5 -101.5 q156 0 259 106.5t103 274.5z" />
<glyph unicode="r" horiz-adv-x="1089" d="M1083 16l-200 -28l-348 413h-156v-401h-180v1020h102q20 0 116.5 4t145.5 4q168 0 265.5 -73.5t97.5 -209.5q0 -213 -215 -288zM739 719q0 80 -54 123t-153 43q-92 0 -153 -4v-340h153q92 0 149.5 50t57.5 128z" />
<glyph unicode="s" horiz-adv-x="925" d="M829 279q0 -137 -100 -218t-276 -81q-231 0 -357 75l47 174q143 -86 314 -86q184 0 184 123q0 57 -53 100.5t-129 73t-152 64.5t-129 96.5t-53 147.5q0 133 108.5 212.5t278.5 79.5q160 0 281 -34l-31 -179q-117 49 -244 50q-117 0 -161 -29t-44 -82q0 -49 53.5 -87 t129 -68.5t151.5 -68.5t129 -104.5t53 -158.5z" />
<glyph unicode="t" horiz-adv-x="1069" d="M1028 1020l-12 -164h-387v-856h-189v856h-387l-12 164h987z" />
<glyph unicode="u" horiz-adv-x="1267" d="M1079 1020v-655q0 -162 -118.5 -273.5t-319.5 -111.5q-215 0 -334 100t-119 285v655h189v-610q0 -127 58.5 -192.5t197.5 -65.5q135 0 201.5 67.5t66.5 190.5v610h178z" />
<glyph unicode="v" horiz-adv-x="1163" d="M1108 1020l-422 -1020h-205l-420 1008l203 18l299 -766q14 -43 19 -78h12q4 41 18 78l301 760h195z" />
<glyph unicode="w" horiz-adv-x="1755" d="M1677 1020l-321 -1020h-187l-268 721q-18 70 -20 88h-13q-2 -31 -22 -90l-264 -719h-185l-315 1012l188 16l215 -717q12 -43 17 -84h14q4 31 21 82l251 711h179l262 -709q14 -45 20 -84h13q4 39 16 84l213 709h186z" />
<glyph unicode="x" horiz-adv-x="1236" d="M1165 10l-209 -20l-338 420l-337 -410h-218l445 528l-416 484l213 18l324 -387l301 377h217l-414 -488z" />
<glyph unicode="y" horiz-adv-x="1048" d="M1006 1020l-390 -680v-340h-188v340l-381 670l205 16l244 -457q18 -35 24 -69h17q8 41 24 71l256 449h189z" />
<glyph unicode="z" horiz-adv-x="1181" d="M1049 0h-924l-12 156l684 700h-625l-6 164h856l18 -141l-698 -715h698z" />
<glyph unicode="{" horiz-adv-x="614" d="M600 -535q-31 -4 -98 -4q-389 0 -389 303q0 88 105.5 266.5t105.5 229.5q0 66 -59.5 88.5t-201.5 22.5v161q139 0 200 23t61 88q0 51 -105.5 224t-105.5 263q0 160 104.5 235t284.5 75q49 0 98 -6v-142q-16 2 -59 2q-236 0 -236 -155q0 -80 104.5 -247t104.5 -245 q0 -182 -217 -190v-13q217 -8 217 -194q0 -72 -104.5 -242t-104.5 -250q0 -154 238 -153q25 0 57 4v-144z" />
<glyph unicode="|" horiz-adv-x="579" d="M383 -526h-184v1974h184v-1974z" />
<glyph unicode="}" horiz-adv-x="614" d="M16 1434q29 4 99 4q389 0 389 -303q0 -88 -105.5 -266.5t-105.5 -229.5q0 -66 59.5 -88.5t200.5 -22.5v-161q-141 0 -200.5 -22.5t-59.5 -88.5q0 -51 105.5 -224t105.5 -263q0 -160 -104.5 -235t-284.5 -75q-49 0 -99 6v142q16 -2 60 -2q236 0 235 155q0 80 -104.5 247 t-104.5 245q0 182 217 190v13q-217 8 -217 194q0 72 104.5 242t104.5 250q0 154 -237 153q-25 0 -58 -4v144z" />
<glyph unicode="~" d="M915 575q-25 -127 -80 -191.5t-128 -64.5q-61 0 -205 65t-170 65q-70 0 -129 -152l-94 37q76 248 219 248q45 0 189.5 -65.5t178.5 -65.5q68 0 119 155z" />
<glyph unicode="&#xa1;" horiz-adv-x="512" d="M154 -496l41 1024h122l39 -1024h-202zM139 807q0 47 35 81t82 34t81 -34t34 -81t-34 -81t-81 -34t-82 34t-35 81z" />
<glyph unicode="&#xa2;" horiz-adv-x="1042" d="M901 68q-98 -49 -223 -62v-125h-158v123q-188 20 -307 144t-119 346q0 238 124 369.5t302 152.5v127h158v-125q123 -10 219 -53l-47 -160q-92 55 -240 55q-156 0 -246 -91t-90 -275q0 -166 87.5 -250t232.5 -84t256 61z" />
<glyph unicode="&#xa3;" horiz-adv-x="1042" d="M883 422h-377q29 -57 29 -103q0 -100 -95 -163h514v-156h-825v152q106 0 164.5 30.5t58.5 110.5q0 47 -45 129h-178v149h88q-55 102 -55 193q0 115 97 195.5t276 80.5q215 0 339 -43l-38 -168q-125 55 -277 56q-205 0 -205 -152q0 -57 64 -162h465v-149z" />
<glyph unicode="&#xa4;" horiz-adv-x="1042" d="M961 858l-105 -108q84 -111 84 -261q0 -162 -92 -274l110 -111l-100 -94l-104 117q-104 -72 -234 -72q-133 0 -235 72l-103 -115l-100 94l106 111q-86 104 -86 262q0 154 82 266l-100 109l102 92l97 -110q111 78 237 77q129 0 240 -75l98 112zM786 487q0 125 -77.5 204 t-186.5 79q-106 0 -186 -79t-80 -204q0 -129 73.5 -208.5t184.5 -79.5t191.5 81.5t80.5 206.5z" />
<glyph unicode="&#xa5;" horiz-adv-x="1042" d="M1008 1020l-353 -535h242v-153h-283v-332h-184v332h-283v153h242l-352 529l203 16l247 -395q27 -41 35 -80h10q8 39 37 80l244 385h195z" />
<glyph unicode="&#xa6;" horiz-adv-x="579" d="M383 637h-184v811h184v-811zM383 -526h-184v815h184v-815z" />
<glyph unicode="&#xa7;" horiz-adv-x="1042" d="M938 426q0 -162 -199 -250q33 -45 33 -104q0 -117 -94 -179.5t-256 -62.5q-115 0 -197 18l27 152q100 -25 229 -25q123 0 123 76q0 37 -51 66.5t-125 54.5t-147.5 54.5t-125 86t-51.5 131.5q0 164 199 250q-33 45 -33 105q0 117 94.5 179t256.5 62q113 0 196 -18 l-26 -152q-102 25 -230 25q-123 0 -123 -76q0 -37 51.5 -66.5t125 -54t147.5 -54.5t125 -86t51 -132zM762 399q0 51 -48 83t-151.5 67t-144.5 55q-137 -47 -137 -133q0 -51 48 -84t150.5 -67.5t145.5 -55.5q137 47 137 135z" />
<glyph unicode="&#xa8;" d="M778 1239q0 -41 -28.5 -71.5t-69.5 -30.5t-69.5 30.5t-28.5 71.5t28.5 68.5t69.5 27.5t69.5 -27.5t28.5 -68.5zM440 1239q0 -41 -28.5 -71.5t-69.5 -30.5t-68.5 29.5t-27.5 72.5q0 41 27.5 68.5t68.5 27.5t69.5 -27.5t28.5 -68.5z" />
<glyph unicode="&#xa9;" horiz-adv-x="1554" d="M1442 700.5q0 -278.5 -192.5 -471t-471.5 -192.5q-281 0 -473 192.5t-192 471t192.5 471t472.5 192.5q279 0 471.5 -192.5t192.5 -471zM1346 700.5q0 241.5 -164 407.5t-403.5 166t-403.5 -166t-164 -407.5t164 -407.5t403.5 -166t403.5 166t164 407.5zM1063 383 q-100 -57 -268 -57q-162 0 -275.5 101t-113.5 271q0 193 121.5 297.5t279.5 104.5q139 0 244 -47l-23 -123q-98 47 -207 47q-115 0 -192.5 -66.5t-77.5 -212.5q0 -127 81 -188t195 -61q123 0 215 57z" />
<glyph unicode="&#xaa;" horiz-adv-x="731" d="M692 877l-139 -7l-59 129h-261l-57 -127h-137l260 539h141zM449 1102l-68 149q-10 20 -12 39h-9q-4 -25 -10 -39l-69 -149h168z" />
<glyph unicode="&#xab;" horiz-adv-x="933" d="M520 55l-141 -49l-328 432v54l328 387l141 -50l-280 -358zM883 55l-142 -49l-327 432v54l327 387l142 -50l-281 -358z" />
<glyph unicode="&#xac;" d="M928 229h-156v361h-690v155h846v-516z" />
<glyph unicode="&#xad;" horiz-adv-x="653" d="M580 446h-504v144h504v-144z" />
<glyph unicode="&#xae;" horiz-adv-x="1554" d="M1442 700.5q0 -278.5 -192.5 -471t-471.5 -192.5q-281 0 -473 192.5t-192 471t192.5 471t472.5 192.5q279 0 471.5 -192.5t192.5 -471zM1346 700.5q0 241.5 -164 407.5t-403.5 166t-403.5 -166t-164 -407.5t164 -407.5t403.5 -166t403.5 166t164 407.5zM1122 352 l-137 -22l-229 299h-109v-291h-125v749h70q154 6 190 7q119 0 187.5 -58.5t68.5 -161.5q0 -78 -44 -132t-115 -72v-6zM907 862q0 123 -162 123q-41 0 -98 -4v-242h88q172 0 172 123z" />
<glyph unicode="&#xaf;" d="M778 1143h-536v133h536v-133z" />
<glyph unicode="&#xb0;" horiz-adv-x="663" d="M600 1182q0 -123 -79 -195t-197 -72q-109 0 -185 69t-76 177q0 121 78 196t199 75q113 0 186.5 -69.5t73.5 -180.5zM471 1176q0 74 -40 113.5t-97 39.5q-61 0 -102.5 -39t-41.5 -112q0 -72 39 -113t101 -41q66 0 103.5 41t37.5 111z" />
<glyph unicode="&#xb1;" d="M899 500h-313v-299h-150v299h-309v143h309v301h150v-301h313v-143zM899 0h-772v141h772v-141z" />
<glyph unicode="&#xb2;" horiz-adv-x="835" d="M758 440l-15 -131h-653v115q266 123 363.5 198.5t97.5 149.5q0 133 -166 133q-127 0 -227 -61l-23 139q111 57 266 57q145 0 226.5 -68.5t81.5 -180.5q0 -100 -72 -180.5t-252 -170.5h373z" />
<glyph unicode="&#xb3;" horiz-adv-x="835" d="M709 512q0 -260 -576 -260l-16 131q426 6 426 133q0 47 -33 65.5t-119 18.5h-186v131h143q92 0 133 20.5t41 73.5q0 49 -40 67.5t-120 18.5q-117 0 -210 -47l-19 133q111 43 246 43q143 0 220 -49t77 -137q0 -125 -131 -168v-6q164 -29 164 -168z" />
<glyph unicode="&#xb4;" d="M758 1421l-232 -317h-125l152 317h205z" />
<glyph unicode="&#xb5;" horiz-adv-x="1126" d="M969 4l-176 -18l-15 110q-137 -117 -258 -116q-115 0 -158 51v-557h-182v1419l185 18v-577q0 -106 47 -147.5t133 -41.5q121 0 223 107v641l184 18v-739q1 -86 17 -168z" />
<glyph unicode="&#xb6;" horiz-adv-x="1042" d="M897 -166h-119v1002q-6 4 -36.5 11l-39.5 9v-1022h-118v1034q-31 6 -58 6q-117 0 -196.5 -73.5t-79.5 -249.5q0 -131 53 -191.5t143 -60.5q49 0 84 20l13 -153q-55 -31 -148 -31q-141 0 -238.5 99.5t-97.5 304.5q0 252 135.5 376.5t327.5 124.5q203 0 375 -67v-1139z" />
<glyph unicode="&#xb7;" horiz-adv-x="442" d="M338 489.5q0 -47.5 -35 -81t-82 -33.5t-81 33.5t-34 81t34 81t81 33.5t82 -33.5t35 -81z" />
<glyph unicode="&#xb8;" d="M678 -258q0 -94 -64.5 -147.5t-148.5 -53.5t-150 35l29 113q53 -27 109 -27q39 0 65.5 22.5t26.5 65.5q0 47 -34 72.5t-87 30.5l18 92q94 0 165 -49.5t71 -153.5z" />
<glyph unicode="&#xb9;" horiz-adv-x="835" d="M680 309h-559v131h241v445l-217 -41l-20 123l248 53h137v-580h184z" />
<glyph unicode="&#xba;" horiz-adv-x="731" d="M682 1149q0 -135 -93 -212t-237 -77q-131 0 -217 74t-86 196q0 135 91 214t235 79q133 0 220 -75.5t87 -198.5zM539 1141q0 82 -45 128t-125 46q-82 0 -129 -47t-47 -129q0 -80 41.5 -125t125.5 -45q88 0 133.5 47t45.5 125z" />
<glyph unicode="&#xbb;" horiz-adv-x="933" d="M883 393l-328 -387l-141 49l280 359l-280 415l141 50l328 -433v-53zM520 393l-327 -387l-142 49l281 359l-281 415l142 50l327 -433v-53z" />
<glyph unicode="&#xbc;" horiz-adv-x="2013" d="M1917 170h-135v-170h-148v170h-424l-12 129l410 477l153 -16l-407 -465h280v233h148v-233h135v-125zM680 309h-559v131h241v445l-217 -41l-20 123l248 53h137v-580h184zM1415 1020l-676 -1020h-159l680 1020h155z" />
<glyph unicode="&#xbd;" horiz-adv-x="2013" d="M1935 131l-14 -131h-653v115q266 123 363.5 198.5t97.5 149.5q0 133 -166 133q-125 0 -228 -61l-22 139q111 57 266 57q145 0 226 -68.5t81 -181.5q0 -100 -71.5 -180t-251.5 -170h372zM680 309h-559v131h241v445l-217 -41l-20 123l248 53h137v-580h184zM1415 1020 l-676 -1020h-159l680 1020h155z" />
<glyph unicode="&#xbe;" horiz-adv-x="2013" d="M1917 170h-135v-170h-148v170h-424l-12 129l410 477l153 -16l-407 -465h280v233h148v-233h135v-125zM709 512q0 -260 -576 -260l-16 131q426 6 426 133q0 47 -33 65.5t-119 18.5h-186v131h143q92 0 133 20.5t41 73.5q0 49 -40 67.5t-120 18.5q-117 0 -210 -47l-19 133 q111 43 246 43q143 0 220 -49t77 -137q0 -125 -131 -168v-6q164 -29 164 -168zM1415 1020l-676 -1020h-159l680 1020h155z" />
<glyph unicode="&#xbf;" horiz-adv-x="772" d="M6 -164q0 152 113.5 264.5t306.5 157.5l-10 270h129l84 -378q-209 -31 -322.5 -100.5t-113.5 -203.5q0 -102 61 -153t160 -51q150 0 245 77l25 -174q-113 -66 -285 -65q-170 0 -281.5 90t-111.5 266zM362 807q0 47 35 81t82 34t81 -34t34 -81t-34 -81t-81 -34t-82 34 t-35 81z" />
<glyph unicode="&#xc0;" horiz-adv-x="1345" d="M1298 8l-198 -16l-168 444h-533l-163 -436h-191l543 1397h168zM870 604l-178 473q-16 41 -20 86h-10q-8 -51 -21 -86l-178 -473h407zM729 1475h-125l-248 235h209z" />
<glyph unicode="&#xc1;" horiz-adv-x="1345" d="M1298 8l-198 -16l-168 444h-533l-163 -436h-191l543 1397h168zM870 604l-178 473q-16 41 -20 86h-10q-8 -51 -21 -86l-178 -473h407zM985 1710l-250 -235h-123l162 235h211z" />
<glyph unicode="&#xc2;" horiz-adv-x="1345" d="M1298 8l-198 -16l-168 444h-533l-163 -436h-191l543 1397h168zM870 604l-178 473q-16 41 -20 86h-10q-8 -51 -21 -86l-178 -473h407zM983 1485l-123 -12l-180 145l-193 -145l-122 12l253 241h132z" />
<glyph unicode="&#xc3;" horiz-adv-x="1345" d="M1298 8l-198 -16l-168 444h-533l-163 -436h-191l543 1397h168zM870 604l-178 473q-16 41 -20 86h-10q-8 -51 -21 -86l-178 -473h407zM1010 1704q-45 -211 -189 -211q-59 0 -169.5 62.5t-137.5 62.5q-63 0 -115 -119l-71 33q63 201 198 201q45 0 155 -61.5t144.5 -61.5 t56 29.5t46.5 93.5z" />
<glyph unicode="&#xc4;" horiz-adv-x="1345" d="M1298 8l-198 -16l-168 444h-533l-163 -436h-191l543 1397h168zM870 604l-178 473q-16 41 -20 86h-10q-8 -51 -21 -86l-178 -473h407zM942 1573q0 -41 -28.5 -72t-69.5 -31t-70 31t-29 72t29 68.5t70 27.5t69.5 -27.5t28.5 -68.5zM604 1573q0 -41 -28.5 -72t-69.5 -31 t-68.5 30t-27.5 73q0 41 27.5 68.5t68.5 27.5t69.5 -27.5t28.5 -68.5z" />
<glyph unicode="&#xc5;" horiz-adv-x="1345" d="M877 1540q0 -123 -109 -176l530 -1356l-198 -16l-168 444h-533l-163 -436h-191l528 1360q-102 47 -102 166q0 90 59.5 145t149.5 55q84 0 140.5 -52t56.5 -134zM870 604l-178 473q-16 41 -20 86h-10q-8 -51 -21 -86l-178 -473h407zM770 1536q0 49 -27.5 75.5t-68.5 26.5 q-43 0 -72 -27.5t-29 -76.5q0 -47 29 -74.5t70 -27.5q47 0 72.5 28.5t25.5 75.5z" />
<glyph unicode="&#xc6;" horiz-adv-x="1771" d="M1655 170l-10 -170h-834v588h-309l-271 -606l-186 18l619 1397h946l-11 -172h-600v-420h545v-172h-545v-463h656zM811 756v506h-20l-224 -506h244z" />
<glyph unicode="&#xc7;" horiz-adv-x="1366" d="M1272 92q-197 -113 -477 -112q-186 0 -344 79.5t-258.5 240.5t-100.5 374q0 186 63.5 333.5t168 235.5t227.5 133t254 45q262 0 446 -94l-55 -182q-168 100 -389 100q-217 0 -363.5 -140t-146.5 -431q0 -252 156.5 -385t371.5 -133q102 0 212 35.5t186 84.5zM924 -258 q0 -94 -64.5 -147.5t-148.5 -53.5t-150 35l29 113q53 -27 108 -27q39 0 66 22.5t27 65.5q0 47 -34 72.5t-87 30.5l18 92q94 0 165 -49.5t71 -153.5z" />
<glyph unicode="&#xc8;" horiz-adv-x="1163" d="M1047 170l-11 -170h-837v1397h802l-10 -172h-600v-420h545v-172h-545v-463h656zM664 1475h-125l-248 235h209z" />
<glyph unicode="&#xc9;" horiz-adv-x="1163" d="M1047 170l-11 -170h-837v1397h802l-10 -172h-600v-420h545v-172h-545v-463h656zM846 1710l-250 -235h-123l162 235h211z" />
<glyph unicode="&#xca;" horiz-adv-x="1163" d="M1047 170l-11 -170h-837v1397h802l-10 -172h-600v-420h545v-172h-545v-463h656zM909 1485l-123 -12l-180 145l-192 -145l-123 12l254 241h131z" />
<glyph unicode="&#xcb;" horiz-adv-x="1163" d="M1047 170l-11 -170h-837v1397h802l-10 -172h-600v-420h545v-172h-545v-463h656zM854 1573q0 -41 -28.5 -72t-69.5 -31t-70 31t-29 72t29 68.5t70 27.5t69.5 -27.5t28.5 -68.5zM516 1573q0 -41 -28.5 -72t-69.5 -31t-68.5 30t-27.5 73q0 41 27.5 68.5t68.5 27.5 t69.5 -27.5t28.5 -68.5z" />
<glyph unicode="&#xcc;" horiz-adv-x="589" d="M379 1475h-125l-248 235h209zM391 0h-192v1397h192v-1397z" />
<glyph unicode="&#xcd;" horiz-adv-x="589" d="M391 0h-192v1397h192v-1397zM584 1710l-250 -235h-123l162 235h211z" />
<glyph unicode="&#xce;" horiz-adv-x="589" d="M604 1485l-123 -12l-180 145l-192 -145l-123 12l254 241h131zM391 0h-192v1397h192v-1397z" />
<glyph unicode="&#xcf;" horiz-adv-x="589" d="M561 1573q0 -41 -28.5 -72t-69.5 -31t-69.5 31t-28.5 72t28.5 68.5t69.5 27.5t69.5 -27.5t28.5 -68.5zM223 1573q0 -41 -28.5 -72t-69.5 -31t-68.5 30t-27.5 73q0 41 27.5 68.5t68.5 27.5t69.5 -27.5t28.5 -68.5zM391 0h-192v1397h192v-1397z" />
<glyph unicode="&#xd0;" horiz-adv-x="1495" d="M1405 725q0 -356 -194.5 -547.5t-512.5 -191.5l-391 14h-108v625h-140v184h140v588h100q256 14 371 14q332 0 533.5 -183.5t201.5 -502.5zM1202 702q0 266 -153.5 405.5t-389.5 139.5q-131 0 -270 -10v-428h336v-184h-336v-461q166 -12 293 -12q233 0 376.5 150 t143.5 400z" />
<glyph unicode="&#xd1;" horiz-adv-x="1603" d="M1405 2l-162 -22l-809 1077q-37 47 -51 92h-10q4 -53 4 -88v-1061h-178v1397h211l761 -1010q31 -43 52 -94h8q-4 70 -4 96v1008h178v-1395zM1190 1704q-45 -211 -189 -211q-59 0 -169.5 62.5t-137.5 62.5q-63 0 -114 -119l-72 33q63 201 199 201q45 0 154.5 -61.5 t144 -61.5t56 29.5t46.5 93.5z" />
<glyph unicode="&#xd2;" horiz-adv-x="1613" d="M1524 725q0 -231 -105.5 -404.5t-272.5 -257t-366 -83.5q-276 0 -482 189t-206 501q0 348 213 549.5t522 201.5q285 0 491 -191.5t206 -504.5zM1319 705q0 260 -145.5 402t-356.5 142q-217 0 -368.5 -147.5t-151.5 -403.5q0 -258 141.5 -402t362.5 -144 q225 0 371.5 156.5t146.5 396.5zM889 1475h-125l-248 235h209z" />
<glyph unicode="&#xd3;" horiz-adv-x="1613" d="M1524 725q0 -231 -105.5 -404.5t-272.5 -257t-366 -83.5q-276 0 -482 189t-206 501q0 348 213 549.5t522 201.5q285 0 491 -191.5t206 -504.5zM1319 705q0 260 -145.5 402t-356.5 142q-217 0 -368.5 -147.5t-151.5 -403.5q0 -258 141.5 -402t362.5 -144 q225 0 371.5 156.5t146.5 396.5zM1112 1710l-250 -235h-123l162 235h211z" />
<glyph unicode="&#xd4;" horiz-adv-x="1613" d="M1524 725q0 -231 -105.5 -404.5t-272.5 -257t-366 -83.5q-276 0 -482 189t-206 501q0 348 213 549.5t522 201.5q285 0 491 -191.5t206 -504.5zM1319 705q0 260 -145.5 402t-356.5 142q-217 0 -368.5 -147.5t-151.5 -403.5q0 -258 141.5 -402t362.5 -144 q225 0 371.5 156.5t146.5 396.5zM1114 1485l-123 -12l-180 145l-193 -145l-122 12l254 241h131z" />
<glyph unicode="&#xd5;" horiz-adv-x="1613" d="M1524 725q0 -231 -105.5 -404.5t-272.5 -257t-366 -83.5q-276 0 -482 189t-206 501q0 348 213 549.5t522 201.5q285 0 491 -191.5t206 -504.5zM1319 705q0 260 -145.5 402t-356.5 142q-217 0 -368.5 -147.5t-151.5 -403.5q0 -258 141.5 -402t362.5 -144 q225 0 371.5 156.5t146.5 396.5zM1143 1704q-45 -211 -189 -211q-59 0 -169.5 62.5t-137.5 62.5q-63 0 -115 -119l-71 33q63 201 198 201q45 0 155 -61.5t144.5 -61.5t56 29.5t46.5 93.5z" />
<glyph unicode="&#xd6;" horiz-adv-x="1613" d="M1524 725q0 -231 -105.5 -404.5t-272.5 -257t-366 -83.5q-276 0 -482 189t-206 501q0 348 213 549.5t522 201.5q285 0 491 -191.5t206 -504.5zM1319 705q0 260 -145.5 402t-356.5 142q-217 0 -368.5 -147.5t-151.5 -403.5q0 -258 141.5 -402t362.5 -144 q225 0 371.5 156.5t146.5 396.5zM1065 1573q0 -41 -28.5 -72t-69.5 -31t-70 31t-29 72t29 68.5t70 27.5t69.5 -27.5t28.5 -68.5zM727 1573q0 -41 -28.5 -72t-69.5 -31t-69 30t-28 73q0 41 28 68.5t69 27.5t69.5 -27.5t28.5 -68.5z" />
<glyph unicode="&#xd7;" d="M938 186l-109 -106l-311 309l-309 -309l-111 104l314 305l-314 306l109 106l311 -309l309 309l109 -104l-313 -308z" />
<glyph unicode="&#xd8;" horiz-adv-x="1613" d="M1524 725q0 -231 -105.5 -404.5t-272.5 -257t-366 -83.5q-209 0 -383 110l-135 -178h-106l172 229q-236 199 -236 529q0 348 213 549.5t522 201.5q211 0 385 -110l129 170h105l-166 -219q244 -197 244 -537zM1319 705q0 260 -152 407l-659 -874q123 -86 293 -86 q225 0 371.5 156.5t146.5 396.5zM297 698q0 -258 145 -407l660 874q-125 84 -285 84q-217 0 -368.5 -147.5t-151.5 -403.5z" />
<glyph unicode="&#xd9;" horiz-adv-x="1472" d="M1292 469q0 -211 -154.5 -350t-398.5 -139q-262 0 -410.5 122.5t-148.5 366.5v928h193v-903q0 -152 93 -243t273 -91q174 0 265.5 95t91.5 241v901h196v-928zM854 1475h-125l-248 235h209z" />
<glyph unicode="&#xda;" horiz-adv-x="1472" d="M1292 469q0 -211 -154.5 -350t-398.5 -139q-262 0 -410.5 122.5t-148.5 366.5v928h193v-903q0 -152 93 -243t273 -91q174 0 265.5 95t91.5 241v901h196v-928zM1026 1710l-250 -235h-123l162 235h211z" />
<glyph unicode="&#xdb;" horiz-adv-x="1472" d="M1292 469q0 -211 -154.5 -350t-398.5 -139q-262 0 -410.5 122.5t-148.5 366.5v928h193v-903q0 -152 93 -243t273 -91q174 0 265.5 95t91.5 241v901h196v-928zM1051 1485l-123 -12l-180 145l-193 -145l-123 12l254 241h131z" />
<glyph unicode="&#xdc;" horiz-adv-x="1472" d="M1292 469q0 -211 -154.5 -350t-398.5 -139q-262 0 -410.5 122.5t-148.5 366.5v928h193v-903q0 -152 93 -243t273 -91q174 0 265.5 95t91.5 241v901h196v-928zM1006 1573q0 -41 -29 -72t-70 -31t-69.5 31t-28.5 72t28.5 68.5t69.5 27.5t70 -27.5t29 -68.5zM668 1573 q0 -41 -29 -72t-70 -31t-68.5 30t-27.5 73q0 41 27.5 68.5t68.5 27.5t70 -27.5t29 -68.5z" />
<glyph unicode="&#xdd;" horiz-adv-x="1241" d="M1202 1397l-465 -877v-520h-192v520l-504 869l211 16l356 -635q18 -35 25 -70h16q8 41 25 72l325 625h203zM920 1710l-250 -235h-123l162 235h211z" />
<glyph unicode="&#xde;" horiz-adv-x="1155" d="M1067 737q0 -221 -148.5 -338.5t-347.5 -117.5q-59 0 -96 4l-22 174q43 -6 90 -6q135 0 233 63.5t98 202.5q0 121 -80.5 189.5t-220.5 68.5q-49 0 -184 -6v-971h-190v1397h190v-262q147 8 215 8q221 0 342 -110t121 -296z" />
<glyph unicode="&#xdf;" horiz-adv-x="1851" d="M1755 279q0 -137 -100.5 -218t-276.5 -81q-231 0 -356 75l47 174q143 -86 313 -86q184 0 185 123q0 57 -53.5 100.5t-129 73t-151.5 64.5t-129 96.5t-53 147.5q0 133 108.5 212.5t278.5 79.5q160 0 280 -34l-30 -179q-117 49 -244 50q-117 0 -161 -29t-44 -82 q0 -49 53.5 -87t129 -68.5t151.5 -68.5t129 -104.5t53 -158.5zM829 279q0 -137 -100 -218t-276 -81q-231 0 -357 75l47 174q143 -86 314 -86q184 0 184 123q0 57 -53 100.5t-129 73t-152 64.5t-129 96.5t-53 147.5q0 133 108.5 212.5t278.5 79.5q160 0 281 -34l-31 -179 q-117 49 -244 50q-117 0 -161 -29t-44 -82q0 -49 53.5 -87t129 -68.5t151.5 -68.5t129 -104.5t53 -158.5z" />
<glyph unicode="&#xe0;" horiz-adv-x="1089" d="M1053 6l-187 -12l-118 297h-416l-113 -291h-182l412 1020h194zM692 434l-129 328q-12 29 -16 76h-15q-2 -43 -16 -76l-129 -328h305zM616 1104h-124l-232 317h205z" />
<glyph unicode="&#xe1;" horiz-adv-x="1089" d="M1053 6l-187 -12l-118 297h-416l-113 -291h-182l412 1020h194zM692 434l-129 328q-12 29 -16 76h-15q-2 -43 -16 -76l-129 -328h305zM827 1421l-231 -317h-125l152 317h204z" />
<glyph unicode="&#xe2;" horiz-adv-x="1089" d="M1053 6l-187 -12l-118 297h-416l-113 -291h-182l412 1020h194zM692 434l-129 328q-12 29 -16 76h-15q-2 -43 -16 -76l-129 -328h305zM874 1110l-143 -12l-186 186l-185 -186l-139 12l254 311h143z" />
<glyph unicode="&#xe3;" horiz-adv-x="1089" d="M1053 6l-187 -12l-118 297h-416l-113 -291h-182l412 1020h194zM692 434l-129 328q-12 29 -16 76h-15q-2 -43 -16 -76l-129 -328h305zM891 1356q-45 -229 -193 -230q-61 0 -172.5 67t-136.5 67q-35 0 -56.5 -30t-47.5 -97l-90 36q35 115 84 167.5t118 52.5q47 0 157 -67 t140 -67q35 0 54.5 31t44.5 103z" />
<glyph unicode="&#xe4;" horiz-adv-x="1089" d="M1053 6l-187 -12l-118 297h-416l-113 -291h-182l412 1020h194zM692 434l-129 328q-12 29 -16 76h-15q-2 -43 -16 -76l-129 -328h305zM811 1239q0 -41 -28.5 -71.5t-69.5 -30.5t-70 30.5t-29 71.5t29 68.5t70 27.5t69.5 -27.5t28.5 -68.5zM473 1239q0 -41 -28.5 -71.5 t-69.5 -30.5t-68.5 29.5t-27.5 72.5q0 41 27.5 68.5t68.5 27.5t69.5 -27.5t28.5 -68.5z" />
<glyph unicode="&#xe5;" horiz-adv-x="1089" d="M754 1194q0 -125 -111 -176l410 -1012l-187 -12l-118 297h-416l-113 -291h-182l409 1016q-98 53 -98 164q0 90 59.5 145t149.5 55q84 0 140.5 -52t56.5 -134zM692 434l-129 328q-12 29 -16 76h-15q-2 -43 -16 -76l-129 -328h305zM643 1190q0 47 -26.5 71.5t-65.5 24.5 q-43 0 -69.5 -25.5t-26.5 -72.5q0 -45 26.5 -70.5t67.5 -25.5q45 0 69.5 26.5t24.5 71.5z" />
<glyph unicode="&#xe6;" horiz-adv-x="1458" d="M1337 164l-6 -164h-715v438h-229l-213 -438h-184l508 1020h813l-11 -164h-497v-260h459v-158h-459v-274h534zM616 586v293h-16l-141 -293h157z" />
<glyph unicode="&#xe7;" horiz-adv-x="1185" d="M1044 47q-160 -68 -382 -67q-242 0 -406 138t-164 369q0 262 166 407.5t401 145.5q223 0 388 -65l-39 -172q-158 76 -332 76t-279.5 -93.5t-105.5 -291.5q0 -172 111.5 -261.5t283.5 -89.5q166 0 318 76zM776 -258q0 -94 -64.5 -147.5t-148.5 -53.5t-149 35l28 113 q53 -27 109 -27q39 0 65.5 22.5t26.5 65.5q0 47 -34 72.5t-87 30.5l19 92q94 0 164.5 -49.5t70.5 -153.5z" />
<glyph unicode="&#xe8;" horiz-adv-x="1040" d="M920 164l-7 -164h-714v1020h694l-10 -164h-498v-260h459v-158h-459v-274h535zM631 1104h-125l-232 317h205z" />
<glyph unicode="&#xe9;" horiz-adv-x="1040" d="M920 164l-7 -164h-714v1020h694l-10 -164h-498v-260h459v-158h-459v-274h535zM811 1421l-231 -317h-125l151 317h205z" />
<glyph unicode="&#xea;" horiz-adv-x="1040" d="M920 164l-7 -164h-714v1020h694l-10 -164h-498v-260h459v-158h-459v-274h535zM874 1110l-143 -12l-186 186l-185 -186l-139 12l254 311h143z" />
<glyph unicode="&#xeb;" horiz-adv-x="1040" d="M920 164l-7 -164h-714v1020h694l-10 -164h-498v-260h459v-158h-459v-274h535zM805 1239q0 -41 -28.5 -71.5t-69.5 -30.5t-70 30.5t-29 71.5t29 68.5t70 27.5t69.5 -27.5t28.5 -68.5zM467 1239q0 -41 -28.5 -71.5t-69.5 -30.5t-69 29.5t-28 72.5q0 41 28 68.5t69 27.5 t69.5 -27.5t28.5 -68.5z" />
<glyph unicode="&#xec;" horiz-adv-x="585" d="M387 0h-188v1020h188v-1020zM373 1104h-125l-232 317h205z" />
<glyph unicode="&#xed;" horiz-adv-x="585" d="M387 0h-188v1020h188v-1020zM569 1421l-231 -317h-125l152 317h204z" />
<glyph unicode="&#xee;" horiz-adv-x="585" d="M387 0h-188v1020h188v-1020zM618 1110l-143 -12l-186 186l-185 -186l-139 12l254 311h143z" />
<glyph unicode="&#xef;" horiz-adv-x="585" d="M387 0h-188v1020h188v-1020zM559 1239q0 -41 -28.5 -71.5t-69.5 -30.5t-70 30.5t-29 71.5t29 68.5t70 27.5t69.5 -27.5t28.5 -68.5zM221 1239q0 -41 -28.5 -71.5t-69.5 -30.5t-68.5 29.5t-27.5 72.5q0 41 27.5 68.5t68.5 27.5t69.5 -27.5t28.5 -68.5z" />
<glyph unicode="&#xf0;" horiz-adv-x="1269" d="M1176 528q0 -258 -159 -398t-411 -140q-53 0 -157.5 5t-147.5 5h-102v455h-121v145h121v420h96q53 0 157.5 4t147.5 4q260 0 418 -132t158 -368zM981 514q0 178 -111.5 268t-287.5 90q-70 0 -199 -6v-266h276v-145h-276v-301q135 -8 215 -9q174 0 278.5 99.5t104.5 269.5 z" />
<glyph unicode="&#xf1;" horiz-adv-x="1343" d="M1145 2l-154 -22l-567 737q-33 43 -49 92h-13q4 -53 5 -88v-721h-168v1020h202l521 -678q33 -43 47 -94h12q-4 57 -4 96v676h168v-1018zM1024 1356q-45 -229 -193 -230q-61 0 -172.5 67t-136.5 67q-35 0 -56.5 -30t-47.5 -97l-90 36q35 115 84 167.5t118 52.5 q47 0 157 -67t140 -67q35 0 54.5 31t44.5 103z" />
<glyph unicode="&#xf2;" horiz-adv-x="1292" d="M1200 528q0 -256 -168 -402t-403 -146q-215 0 -376 141t-161 368q0 252 167 401.5t405 149.5q219 0 377.5 -142.5t158.5 -369.5zM1001 516q0 174 -102 271.5t-246 97.5q-147 0 -254.5 -99.5t-107.5 -277.5q0 -170 100.5 -271.5t247.5 -101.5q156 0 259 106.5t103 274.5z M735 1104h-125l-231 317h205z" />
<glyph unicode="&#xf3;" horiz-adv-x="1292" d="M1200 528q0 -256 -168 -402t-403 -146q-215 0 -376 141t-161 368q0 252 167 401.5t405 149.5q219 0 377.5 -142.5t158.5 -369.5zM1001 516q0 174 -102 271.5t-246 97.5q-147 0 -254.5 -99.5t-107.5 -277.5q0 -170 100.5 -271.5t247.5 -101.5q156 0 259 106.5t103 274.5z M946 1421l-231 -317h-125l151 317h205z" />
<glyph unicode="&#xf4;" horiz-adv-x="1292" d="M1200 528q0 -256 -168 -402t-403 -146q-215 0 -376 141t-161 368q0 252 167 401.5t405 149.5q219 0 377.5 -142.5t158.5 -369.5zM1001 516q0 174 -102 271.5t-246 97.5q-147 0 -254.5 -99.5t-107.5 -277.5q0 -170 100.5 -271.5t247.5 -101.5q156 0 259 106.5t103 274.5z M979 1110l-143 -12l-187 186l-184 -186l-139 12l254 311h143z" />
<glyph unicode="&#xf5;" horiz-adv-x="1292" d="M1200 528q0 -256 -168 -402t-403 -146q-215 0 -376 141t-161 368q0 252 167 401.5t405 149.5q219 0 377.5 -142.5t158.5 -369.5zM1001 516q0 174 -102 271.5t-246 97.5q-147 0 -254.5 -99.5t-107.5 -277.5q0 -170 100.5 -271.5t247.5 -101.5q156 0 259 106.5t103 274.5z M993 1356q-45 -229 -192 -230q-61 0 -173 67t-136 67q-35 0 -56.5 -30t-48.5 -97l-90 36q35 115 84 167.5t119 52.5q47 0 156.5 -67t140.5 -67q35 0 54 31t44 103z" />
<glyph unicode="&#xf6;" horiz-adv-x="1292" d="M1200 528q0 -256 -168 -402t-403 -146q-215 0 -376 141t-161 368q0 252 167 401.5t405 149.5q219 0 377.5 -142.5t158.5 -369.5zM1001 516q0 174 -102 271.5t-246 97.5q-147 0 -254.5 -99.5t-107.5 -277.5q0 -170 100.5 -271.5t247.5 -101.5q156 0 259 106.5t103 274.5z M913 1239q0 -41 -28.5 -71.5t-69.5 -30.5t-69.5 30.5t-28.5 71.5t28.5 68.5t69.5 27.5t69.5 -27.5t28.5 -68.5zM575 1239q0 -41 -28.5 -71.5t-69.5 -30.5t-68.5 29.5t-27.5 72.5q0 41 27.5 68.5t68.5 27.5t69.5 -27.5t28.5 -68.5z" />
<glyph unicode="&#xf7;" d="M631 819q0 -51 -36 -87t-85 -36t-83 36t-34 87t34 86t83 35t85 -35t36 -86zM905 414h-788v123h788v-123zM629 125q0 -51 -35 -87t-84 -36t-83 36t-34 87t34 86t83 35t84 -35t35 -86z" />
<glyph unicode="&#xf8;" horiz-adv-x="1292" d="M1200 528q0 -256 -168 -402t-403 -146q-160 0 -291 77l-137 -176h-92l167 217q-184 147 -184 391q0 252 167 401.5t405 149.5q152 0 284 -75l137 178h91l-168 -217q192 -152 192 -398zM1001 516q0 168 -102 270l-457 -593q86 -57 197 -58q156 0 259 106.5t103 274.5z M291 508q0 -166 96 -268l457 591q-88 53 -191 54q-147 0 -254.5 -99.5t-107.5 -277.5z" />
<glyph unicode="&#xf9;" horiz-adv-x="1267" d="M1079 1020v-655q0 -162 -118.5 -273.5t-319.5 -111.5q-215 0 -334 100t-119 285v655h189v-610q0 -127 58.5 -192.5t197.5 -65.5q135 0 201.5 67.5t66.5 190.5v610h178zM711 1104h-125l-232 317h205z" />
<glyph unicode="&#xfa;" horiz-adv-x="1267" d="M1079 1020v-655q0 -162 -118.5 -273.5t-319.5 -111.5q-215 0 -334 100t-119 285v655h189v-610q0 -127 58.5 -192.5t197.5 -65.5q135 0 201.5 67.5t66.5 190.5v610h178zM918 1421l-232 -317h-125l152 317h205z" />
<glyph unicode="&#xfb;" horiz-adv-x="1267" d="M1079 1020v-655q0 -162 -118.5 -273.5t-319.5 -111.5q-215 0 -334 100t-119 285v655h189v-610q0 -127 58.5 -192.5t197.5 -65.5q135 0 201.5 67.5t66.5 190.5v610h178zM967 1110l-144 -12l-186 186l-184 -186l-140 12l254 311h144z" />
<glyph unicode="&#xfc;" horiz-adv-x="1267" d="M1079 1020v-655q0 -162 -118.5 -273.5t-319.5 -111.5q-215 0 -334 100t-119 285v655h189v-610q0 -127 58.5 -192.5t197.5 -65.5q135 0 201.5 67.5t66.5 190.5v610h178zM909 1239q0 -41 -28.5 -71.5t-69.5 -30.5t-69.5 30.5t-28.5 71.5t28.5 68.5t69.5 27.5t69.5 -27.5 t28.5 -68.5zM571 1239q0 -41 -28.5 -71.5t-69.5 -30.5t-68.5 29.5t-27.5 72.5q0 41 27.5 68.5t68.5 27.5t69.5 -27.5t28.5 -68.5z" />
<glyph unicode="&#xfd;" horiz-adv-x="1048" d="M1006 1020l-390 -680v-340h-188v340l-381 670l205 16l244 -457q18 -35 24 -69h17q8 41 24 71l256 449h189zM801 1421l-232 -317h-125l152 317h205z" />
<glyph unicode="&#xfe;" horiz-adv-x="1028" d="M936 541q0 -170 -117 -258t-291 -88q-12 0 -69 4l-21 143q41 -6 84 -6q96 0 161 47t65 145q0 170 -220 170q-80 0 -145 -4v-694h-184v1020h184v-182q111 4 170 4q172 0 277.5 -78t105.5 -223z" />
<glyph unicode="&#xff;" horiz-adv-x="1048" d="M1006 1020l-390 -680v-340h-188v340l-381 670l205 16l244 -457q18 -35 24 -69h17q8 41 24 71l256 449h189zM795 1239q0 -41 -29 -71.5t-70 -30.5t-69.5 30.5t-28.5 71.5t28.5 68.5t69.5 27.5t70 -27.5t29 -68.5zM457 1239q0 -41 -29 -71.5t-70 -30.5t-68.5 29.5 t-27.5 72.5q0 41 27.5 68.5t68.5 27.5t70 -27.5t29 -68.5z" />
<glyph unicode="&#x152;" horiz-adv-x="2215" d="M2099 170l-10 -170h-825v223h-4q-72 -113 -204 -178t-311 -65q-264 0 -458.5 190t-194.5 502q0 346 204 547.5t497 201.5q322 0 467 -223h4v199h790l-10 -172h-600v-420h545v-172h-545v-463h655zM1260 707q0 268 -132.5 404t-339.5 136q-205 0 -348 -142t-143 -405 q0 -258 132 -403t347 -145q219 0 351.5 150.5t132.5 404.5z" />
<glyph unicode="&#x153;" horiz-adv-x="1789" d="M1669 164l-6 -164h-694v135h-6q-135 -156 -361 -155q-211 0 -360.5 140t-149.5 369q0 256 154.5 403.5t390.5 147.5q215 0 326 -139h6v119h673l-10 -164h-497v-260h458v-158h-458v-274h534zM954 516q0 176 -93 272.5t-234 96.5q-145 0 -240.5 -98.5t-95.5 -278.5 q0 -172 88 -272.5t233 -100.5q154 0 248 105.5t94 275.5z" />
<glyph unicode="&#x178;" horiz-adv-x="1241" d="M1202 1397l-465 -877v-520h-192v520l-504 869l211 16l356 -635q18 -35 25 -70h16q8 41 25 72l325 625h203zM907 1573q0 -41 -28.5 -72t-69.5 -31t-69.5 31t-28.5 72t28.5 68.5t69.5 27.5t69.5 -27.5t28.5 -68.5zM569 1573q0 -41 -28.5 -72t-69.5 -31t-68.5 30t-27.5 73 q0 41 27.5 68.5t68.5 27.5t69.5 -27.5t28.5 -68.5z" />
<glyph unicode="&#x2c6;" d="M821 1110l-143 -12l-186 186l-185 -186l-139 12l254 311h143z" />
<glyph unicode="&#x2dc;" d="M852 1356q-45 -229 -193 -230q-61 0 -172.5 67t-136.5 67q-35 0 -56.5 -30t-47.5 -97l-90 36q35 115 84 167.5t118 52.5q47 0 157 -67t140 -67q35 0 54.5 31t44.5 103z" />
<glyph unicode="&#x2000;" horiz-adv-x="866" />
<glyph unicode="&#x2001;" horiz-adv-x="1732" />
<glyph unicode="&#x2002;" horiz-adv-x="866" />
<glyph unicode="&#x2003;" horiz-adv-x="1732" />
<glyph unicode="&#x2004;" horiz-adv-x="577" />
<glyph unicode="&#x2005;" horiz-adv-x="432" />
<glyph unicode="&#x2006;" horiz-adv-x="288" />
<glyph unicode="&#x2007;" horiz-adv-x="288" />
<glyph unicode="&#x2008;" horiz-adv-x="215" />
<glyph unicode="&#x2009;" horiz-adv-x="346" />
<glyph unicode="&#x200a;" horiz-adv-x="96" />
<glyph unicode="&#x2010;" horiz-adv-x="653" d="M580 446h-504v144h504v-144z" />
<glyph unicode="&#x2011;" horiz-adv-x="653" d="M580 446h-504v144h504v-144z" />
<glyph unicode="&#x2012;" horiz-adv-x="653" d="M580 446h-504v144h504v-144z" />
<glyph unicode="&#x2013;" d="M956 446h-888v144h888v-144z" />
<glyph unicode="&#x2014;" horiz-adv-x="2048" d="M1980 446h-1912v144h1912v-144z" />
<glyph unicode="&#x2018;" horiz-adv-x="440" d="M55 1010q41 137 88 229t164 248l135 -21q-141 -252 -182 -456h-205z" />
<glyph unicode="&#x2019;" horiz-adv-x="440" d="M416 1475q-41 -137 -88 -229.5t-164 -248.5l-135 21q141 252 182 457h205z" />
<glyph unicode="&#x201a;" horiz-adv-x="440" d="M416 250q-41 -137 -88 -229.5t-164 -247.5l-135 20q141 252 182 457h205z" />
<glyph unicode="&#x201c;" horiz-adv-x="790" d="M55 1010q41 137 88 229t164 248l135 -21q-141 -252 -182 -456h-205zM403 1010q41 137 88.5 229t163.5 248l136 -21q-141 -252 -183 -456h-205z" />
<glyph unicode="&#x201d;" horiz-adv-x="790" d="M416 1475q-41 -137 -88 -229.5t-164 -248.5l-135 21q141 252 182 457h205zM764 1475q-41 -137 -88 -229.5t-164 -248.5l-135 21q141 252 182 457h205z" />
<glyph unicode="&#x201e;" horiz-adv-x="786" d="M420 250q-43 -139 -90 -231.5t-162 -245.5l-135 20q141 252 182 457h205zM768 250q-41 -137 -88 -229.5t-164 -247.5l-135 20q141 252 182 457h205z" />
<glyph unicode="&#x2022;" horiz-adv-x="710" d="M612 460.5q0 -106.5 -74.5 -181t-181 -74.5t-182.5 74.5t-76 181t76 181.5t182.5 75t181 -75t74.5 -181.5z" />
<glyph unicode="&#x2026;" horiz-adv-x="1259" d="M338 94q0 -47 -35 -80.5t-82 -33.5t-81 33.5t-34 80.5t34 81t81 34t82 -34t35 -81zM1186 94q0 -47 -35 -80.5t-82 -33.5t-81 33.5t-34 80.5t34 81t81 34t82 -34t35 -81zM762 94q0 -47 -35 -80.5t-82 -33.5t-81 33.5t-34 80.5t34 81t81 34t82 -34t35 -81z" />
<glyph unicode="&#x202f;" horiz-adv-x="346" />
<glyph unicode="&#x2039;" horiz-adv-x="571" d="M520 55l-141 -49l-328 432v54l328 387l141 -50l-280 -358z" />
<glyph unicode="&#x203a;" horiz-adv-x="571" d="M520 393l-327 -387l-142 49l281 359l-281 415l142 50l327 -433v-53z" />
<glyph unicode="&#x205f;" horiz-adv-x="432" />
<glyph unicode="&#x20ac;" horiz-adv-x="1042" d="M944 41q-121 -61 -317 -61q-172 0 -287 93t-150 269h-127l31 96h82v51q0 59 4 89h-117l31 96h101q43 188 165.5 277t278.5 89q172 0 291 -45l-31 -159q-121 53 -246 53q-229 0 -278 -215h411l-28 -96h-400q-2 -29 -2 -89q0 -35 2 -51h441l-29 -96h-397q53 -207 278 -207 q137 0 262 66z" />
<glyph unicode="&#x2122;" horiz-adv-x="2572" d="M958 1217l-6 -156h-336v-893h-172v893h-335l-7 156h856zM2359 168l-159 -6l-41 700q-4 41 -5 84h-10q-10 -53 -22 -76l-322 -702h-137l-274 690q-18 41 -25 88h-10q0 -47 -4 -88l-54 -696l-149 6l86 1049h176l301 -748q18 -43 27 -90h10q12 51 29 90l340 748h172z" />
<glyph unicode="&#xe000;" horiz-adv-x="1030" d="M0 1030h1030v-1030h-1030v1030z" />
<glyph unicode="&#xfb01;" horiz-adv-x="1579" d="M899 1020l-12 -164h-500v-301h459v-160h-459v-395h-188v1020h700zM1380 0h-188v1020h188v-1020z" />
<glyph unicode="&#xfb02;" horiz-adv-x="1943" d="M899 1020l-12 -164h-500v-301h459v-160h-459v-395h-188v1020h700zM1882 166l-8 -166h-682v1020h188v-854h502z" />
<glyph unicode="&#xfb03;" horiz-adv-x="2572" d="M2374 0h-188v1020h188v-1020zM1892 1020l-12 -164h-500v-301h459v-160h-459v-395h-188v1020h700zM899 1020l-12 -164h-500v-301h459v-160h-459v-395h-188v1020h700z" />
<glyph unicode="&#xfb04;" horiz-adv-x="2936" d="M2876 166l-8 -166h-682v1020h188v-854h502zM1892 1020l-12 -164h-500v-301h459v-160h-459v-395h-188v1020h700zM899 1020l-12 -164h-500v-301h459v-160h-459v-395h-188v1020h700z" />
<glyph horiz-adv-x="491" />
</font>
</defs>
</svg>
